<svg width="198" height="176" viewBox="0 0 198 176" fill="none" xmlns="http://www.w3.org/2000/svg">
<path d="M130.891 128.055C107.911 123.057 84.179 122.573 61.0144 126.63C61.0144 126.63 54.9714 127.241 54.6994 133.081C54.6994 133.081 54.4994 140.481 59.7934 142.112C59.7934 142.112 63.3934 143.402 69.0934 142.112C69.0934 142.112 106.986 136.138 135.71 138.854L130.891 128.055Z" fill="#F08E02"/>
<path d="M78.2714 84.454C78.2714 84.399 78.2714 84.346 78.2714 84.292C78.0944 84.392 77.9504 84.466 77.9504 84.466C78.0594 84.454 78.1604 84.46 78.2714 84.454Z" fill="#D00500"/>
<path d="M186.874 97.29C173.042 82.668 143.874 83.229 143.874 83.229C150.622 81.955 149.874 78.957 149.874 78.957C147.287 67.035 147.999 14.323 147.999 14.323C147.849 11.699 143.575 5.175 143.575 5.175C142.968 5.12449 142.366 5.02415 141.775 4.875C141.34 3.96664 141.012 3.01002 140.8 2.02499L140.277 1.05L139.9 1.35001L139.525 1.95L139.075 1.875L138.775 0C135.175 18 134.275 59.76 134.275 59.76C130.9 55.636 117.775 24.743 117.775 24.743C113.801 15.743 103.975 19.12 103.975 19.12C102.064 19.7767 100.11 20.3026 98.1264 20.694C100.45 29.167 99.9265 70.032 99.9265 70.032C93.4399 56.1203 89.2793 41.2387 87.6105 25.98C86.8805 19.457 79.5105 20.638 79.5105 20.638C76.5285 17.995 64.6105 19.795 64.6105 19.795C64.2725 39.957 50.8975 70.318 50.8975 70.318C51.0675 57.434 54.3415 20.726 54.3415 20.726C55.0555 13.316 47.1915 13.576 47.1915 13.576C38.1575 13.376 38.1575 14.942 38.1575 14.942C36.0775 24.106 37.0575 54.068 37.0575 54.068C32.8325 53.158 20.4435 53.977 20.4435 53.977C25.8805 28.092 7.61547 32.36 7.61547 32.36C3.26047 33.009 4.43045 35.219 4.43045 35.219C7.09445 44.513 7.22446 85.07 7.22446 85.07C1.12446 86.406 1.85646 90.033 1.85646 90.033C1.91246 95.433 5.00446 97.119 5.00446 97.119C5.29469 97.4247 5.66366 97.6443 6.07071 97.7536C6.47776 97.863 6.90711 97.858 7.31146 97.739C8.92493 97.3376 10.5577 97.0182 12.2035 96.782L13.0465 113.147C10.7975 113.091 6.69345 109.267 6.69345 109.267C6.35445 112.416 8.54846 116.967 8.54846 116.967C7.64846 116.854 5.62445 111.286 5.62445 111.286C6.07445 119.777 13.3865 123.486 13.3865 123.486C13.4415 128.379 14.4545 159.702 14.4545 159.702C14.6235 159.702 15.1855 159.083 15.1855 159.083C15.8035 158.112 16.1415 158.859 16.1415 158.859C16.5355 159.366 16.5915 158.859 16.5915 158.859C16.8605 158.358 17.1809 157.887 17.5475 157.453C17.9697 157.42 18.3673 157.241 18.6715 156.946C18.9472 156.065 19.4995 155.296 20.2465 154.754C20.6069 154.6 20.9293 154.369 21.1915 154.077C21.4536 153.786 21.6491 153.441 21.7645 153.066C22.5666 151.378 23.5673 149.792 24.7455 148.341L25.4775 126.41C26.7145 126.972 34.7565 126.128 34.7565 126.128C42.2365 133.046 45.7215 143.788 45.7215 143.788C45.9049 144.088 46.1604 144.338 46.4647 144.515C46.7691 144.692 47.1127 144.79 47.4645 144.8C47.8582 144.638 48.2763 144.542 48.7015 144.518C49.304 144.354 49.8247 143.973 50.1635 143.448C50.7265 142.493 51.4015 142.718 51.4015 142.718C52.5255 137.207 49.0395 128.318 49.0395 128.318C51.8515 130.849 52.4695 138.665 52.5825 141.477C54.7755 132.477 48.4205 122.92 48.4205 122.92C62.0295 117.915 60.9625 109.704 60.9625 109.704C62.4235 121.12 73.0525 128.488 73.0525 128.488C83.7375 134.954 91.6665 125.338 91.6665 125.338C100.438 115.89 98.9215 98.457 98.8665 97.727C95.8295 78.605 81.0035 80.593 81.0035 80.593C77.5905 80.968 78.3405 83.031 78.3405 83.031C79.2035 82.993 78.9035 83.667 78.9035 83.667C78.8575 83.891 78.5265 84.127 78.2675 84.281C78.2675 84.335 78.2675 84.388 78.2675 84.443C88.9225 83.851 87.2765 102.956 87.2765 102.956C86.4335 112.178 81.4855 115.722 81.4855 115.722C80.0795 117.071 78.2855 115.103 78.2855 115.103C72.6615 110.267 73.1665 99.245 73.1665 99.245C73.2147 94.6293 74.6667 90.1376 77.3295 86.367C77.6161 86.1335 77.8488 85.8407 78.0116 85.5088C78.1743 85.1768 78.2633 84.8136 78.2725 84.444C78.1615 84.45 78.0595 84.444 77.9465 84.456C77.9465 84.456 78.0915 84.386 78.2675 84.282C78.1155 81.916 74.5725 79.676 74.5725 79.676C70.2985 76.976 67.8435 79.095 67.8435 79.095C61.9945 85.618 60.2695 98.139 60.2695 98.139C57.1195 86.668 43.3255 84.194 43.3255 84.194L43.3995 83.894L43.3255 83.294C43.8024 83.2695 44.2777 83.2198 44.7495 83.145C44.9744 83.07 45.4245 82.47 45.4245 82.47L46.3985 83.145C47.0341 81.3892 47.3639 79.5373 47.3735 77.67L49.1735 77.596L49.2485 75.196L49.7735 74.97L50.1495 76.47L50.7495 76.02C51.8735 74.82 50.8985 78.494 50.8985 78.494C50.5985 79.994 52.9235 81.194 52.9235 81.194L53.6735 83.819C55.2475 83.219 55.3975 84.419 55.3975 84.419C56.0725 85.543 56.5975 83.894 56.5975 83.894L63.4195 72.947L72.7935 71.747C86.8145 71.673 87.2645 70.623 87.2645 70.623C93.0385 82.77 97.3875 84.195 97.3875 84.195C99.3375 84.795 100.31 82.62 100.31 82.62L100.459 84.871C101.284 83.597 103.385 83.595 103.385 83.595C103.985 83.071 104.359 80.595 104.359 80.595L106.084 81.719C106.21 80.2864 106.818 78.9387 107.808 77.896C109.458 76.772 110.957 73.248 110.957 73.248C111.156 73.2248 111.343 73.1399 111.491 73.0051C111.639 72.8704 111.741 72.6927 111.782 72.497L114.256 43.48C117.404 53.227 134.356 78.12 134.356 78.12C134.88 83.369 138.856 83.743 138.856 83.743C129.266 84.143 129.783 86.443 129.783 86.443C128.209 84.043 123.559 84.268 123.559 84.268C119.659 81.868 109.389 83.668 109.389 83.668C109.501 99.414 96.9605 133.325 96.9605 133.325C96.144 135.244 95.7419 137.313 95.7805 139.398C95.8365 140.58 96.5115 140.13 96.5115 140.13C97.4675 138.725 96.5675 142.774 96.5675 142.774C96.5115 143.39 98.4234 144.741 98.4234 144.741C98.4234 144.741 98.8735 147.216 98.8175 147.384C98.7615 147.552 99.6615 147.721 99.6615 147.721C99.6615 147.721 100.447 147.496 100.617 147.721C100.787 147.946 101.404 149.127 101.404 149.127C111.245 134.562 120.186 108.244 120.186 108.244C124.404 124.215 136.386 144.516 136.386 144.516C140.21 150.477 143.247 146.654 143.247 146.654C146.509 144.066 143.471 137.992 143.471 137.992C146.396 141.929 152.132 143.954 152.132 143.954L152.244 153.739L153.256 153.175H154.381L154.719 146.353L155.505 146.204C155.505 146.204 156.742 146.54 157.08 146.204C157.418 145.868 157.305 145.079 157.305 145.079C191.945 145.865 195.096 124.158 195.205 123.146C195.894 118.486 195.501 113.73 194.056 109.246C192.612 104.762 190.154 100.671 186.874 97.29ZM9.25347 84.49C9.3022 83.9183 9.47595 83.3642 9.76245 82.867C9.90145 83.331 10.6885 83.332 10.6885 83.332C11.6685 81.6479 13.1861 80.342 14.9975 79.624C15.5021 78.5631 15.9201 77.4632 16.2475 76.335C16.2015 75.735 17.4535 75.78 17.4535 75.78C17.7692 74.9871 18.0038 74.1642 18.1535 73.324L18.7075 73.787L19.2185 67.487C20.3305 66.605 37.9355 64.522 37.9355 64.522C38.6206 70.9832 39.8761 77.3711 41.6875 83.611C22.2255 80.502 9.25347 84.49 9.25347 84.49ZM53.5965 102.07C55.0585 104.489 52.1335 107.132 52.1335 107.132C44.2045 114.781 26.2095 115.456 26.2095 115.456L26.9965 95.323C49.5475 94.42 53.5965 102.066 53.5965 102.066V102.07ZM69.5675 60.363C69.5675 60.363 75.7165 46.563 75.9425 44.092C75.9425 44.092 80.8895 57.963 82.8425 60.363C82.8405 60.359 70.5405 59.685 69.5675 60.359V60.363ZM142.392 126.308C139.806 124.341 140.48 122.208 140.48 122.208C139.524 121.591 139.187 125.133 139.187 125.133C136.263 119.002 132.381 98.758 132.381 98.758C133.225 99.545 133.9 99.152 133.9 99.152C139.242 97.296 149.983 97.52 149.983 97.52C151.108 99.993 151.671 130.869 151.671 130.869C148.128 130.804 142.392 126.304 142.392 126.304V126.308ZM159.151 131.876L160.051 121.697L160.333 131.876C159.948 131.998 159.535 131.997 159.15 131.872L159.151 131.876ZM186.251 120.066C180.46 129.288 162.069 131.976 162.069 131.976C161.732 123.641 162.969 99.203 162.969 99.203C181.414 103.871 186.756 113.318 186.756 113.318C188.73 116.351 186.255 120.062 186.255 120.062L186.251 120.066Z" fill="white"/>
<path d="M185.603 27.249C184.31 19.971 177.37 20.923 177.37 20.923C174.921 17.657 162.201 19.97 162.201 19.97C161.588 40.584 150.84 71.742 150.84 71.742C151.451 71.811 151.996 73.715 151.996 73.715C151.974 79.265 154.037 80.858 154.037 80.858C155.805 83.307 162.881 81.197 162.881 81.197C181.181 78.137 189.344 82.697 189.344 82.697C189.957 82.153 191.044 78.342 191.044 78.342C191.044 78.887 192.2 80.383 192.2 80.383C192.274 80.1533 192.398 79.9427 192.562 79.7662C192.727 79.5898 192.928 79.4517 193.152 79.362C193.741 79.9074 194.436 80.3249 195.193 80.588C195.281 80.1112 195.493 79.6657 195.806 79.296C196.228 79.927 196.733 80.4987 197.306 80.996C188.595 55.278 185.603 27.249 185.603 27.249ZM167.913 62.965C167.913 62.965 173.083 51.065 173.764 46.707C173.764 46.707 177.642 61.197 179.886 65.619C176.061 64.1051 172.02 63.2092 167.913 62.965Z" fill="white"/>
<path d="M0.0314457 14.521C0.0314457 14.521 0.231444 13.289 1.88244 13.365H4.80644C5.21372 13.1397 5.67152 13.0216 6.13694 13.0216C6.60237 13.0216 7.06017 13.1397 7.46745 13.365H10.6165C10.6165 13.365 14.2924 12.319 14.4404 14.831C14.4404 14.831 14.4404 19.331 14.6654 21.917H18.2655V14.826C18.2655 14.826 18.1904 13.176 20.1774 13.29C20.5011 13.3009 20.8183 13.3842 21.1055 13.5339C21.3927 13.6835 21.6427 13.8957 21.8371 14.1548C22.0315 14.4138 22.1653 14.7132 22.2287 15.0308C22.2921 15.3484 22.2835 15.6762 22.2034 15.99C21.579 19.5311 21.2605 23.1193 21.2514 26.715C21.2514 26.715 20.8745 27.415 20.8515 27.515C20.8285 27.615 20.4795 27.652 20.4595 27.826C20.4395 28 20.0785 28.426 20.0195 28.544C19.8044 28.7707 19.572 28.9804 19.3244 29.171C18.8539 27.6997 18.6381 26.1589 18.6864 24.615C18.6864 24.615 15.8464 24.872 14.5274 24.872C14.5274 24.872 14.4275 24.752 14.3665 26.572C14.1314 26.7129 13.9071 26.8709 13.6954 27.045C13.4839 27.3049 13.3077 27.5918 13.1714 27.898C13.0544 28.209 12.6854 28.48 12.6084 28.598C12.5314 28.716 11.4254 29.471 11.4444 29.549C11.4634 29.627 11.6555 17.737 11.1335 16.98C10.2478 16.8405 9.34734 16.821 8.45645 16.922C8.45645 16.922 8.41944 22.392 8.10844 26.252C7.7786 26.8847 7.41612 27.4999 7.02244 28.095C6.60691 28.4292 6.26392 28.8447 6.01445 29.316L5.47145 29.549C5.34284 29.1954 5.29633 28.8172 5.33545 28.443C5.33545 28.443 5.54844 17.621 5.17944 17.097C4.01522 17.0461 2.84885 17.0795 1.68945 17.197C1.68945 17.197 -0.269554 17.509 0.0314457 14.521Z" fill="white"/>
<path d="M22.6715 14.545C22.6715 14.545 22.5865 13.673 24.0485 13.617H33.2715C33.1969 13.9363 33.0066 14.2167 32.7375 14.404C32.2875 14.714 31.8935 16.457 26.2975 16.513C26.1556 17.3299 26.1274 18.1624 26.2135 18.987C26.2135 18.987 31.1075 18.763 31.5845 18.594C31.5845 18.594 31.9775 19.101 31.0225 19.888C29.4718 21.0936 27.6616 21.9215 25.7355 22.306C25.7282 23.1883 25.7656 24.0705 25.8475 24.949C25.8475 24.949 31.7585 23.234 34.7595 23.403C34.7595 23.403 35.3655 23.486 34.9775 23.992C34.2128 24.6215 33.4977 25.3088 32.8385 26.048C30.0041 26.5898 27.2473 27.4789 24.6305 28.695C24.6305 28.695 22.7195 30.06 22.2425 28.611C22.2425 28.611 21.4955 26.811 22.6575 26.1L22.8105 26.015L22.6715 14.545Z" fill="white"/>
<path d="M8.26044 175.346L10.3134 164.864L13.6594 172.441L17.1264 164.864L18.9704 175.346H17.4604L16.5204 169.461L13.6334 175.794L10.8335 169.454L9.78545 175.345L8.26044 175.346Z" fill="white"/>
<path d="M31.9464 165.596V171.466C31.8982 172.105 32.0413 172.744 32.3574 173.302C32.5634 173.563 32.8257 173.774 33.1248 173.919C33.4239 174.064 33.752 174.139 34.0844 174.139C34.4168 174.139 34.7449 174.064 35.044 173.919C35.3431 173.774 35.6055 173.563 35.8114 173.302C36.1307 172.746 36.2739 172.105 36.2224 171.466V165.596H37.6934V171.868C37.71 172.334 37.6336 172.798 37.4688 173.234C37.304 173.67 37.054 174.069 36.7334 174.407C36.3879 174.759 35.9756 175.039 35.5206 175.231C35.0655 175.422 34.577 175.52 34.0834 175.52C33.5899 175.52 33.1013 175.422 32.6463 175.231C32.1913 175.039 31.7789 174.759 31.4334 174.407C31.113 174.069 30.8632 173.67 30.6986 173.234C30.5339 172.798 30.4577 172.334 30.4744 171.868V165.591L31.9464 165.596Z" fill="white"/>
<path d="M54.9834 167.043L53.7904 167.751C53.6425 167.45 53.4231 167.19 53.1514 166.993C52.8644 166.84 52.5394 166.772 52.215 166.798C51.8906 166.824 51.5805 166.942 51.3214 167.139C51.1935 167.242 51.091 167.373 51.0217 167.522C50.9523 167.671 50.918 167.834 50.9214 167.998C50.9214 168.475 51.2751 168.858 51.9824 169.149L52.9544 169.549C53.624 169.784 54.2218 170.188 54.6904 170.721C55.0654 171.207 55.2595 171.808 55.2394 172.421C55.2516 172.834 55.1778 173.244 55.0229 173.627C54.868 174.01 54.6352 174.356 54.3394 174.644C54.0445 174.935 53.694 175.163 53.3087 175.316C52.9235 175.468 52.5115 175.541 52.0974 175.53C51.3262 175.559 50.5738 175.288 49.9974 174.775C49.4227 174.209 49.0631 173.46 48.9804 172.657L50.4704 172.328C50.4885 172.747 50.6101 173.155 50.8244 173.515C50.9696 173.697 51.1509 173.847 51.3569 173.955C51.563 174.063 51.7892 174.127 52.0213 174.143C52.2535 174.159 52.4864 174.127 52.7054 174.048C52.9243 173.969 53.1246 173.846 53.2934 173.686C53.4441 173.532 53.5621 173.349 53.6401 173.149C53.7181 172.948 53.7546 172.733 53.7474 172.518C53.7491 172.341 53.7224 172.165 53.6684 171.997C53.6141 171.838 53.5303 171.69 53.4214 171.562C53.296 171.417 53.1502 171.292 52.9884 171.189C52.788 171.061 52.5769 170.951 52.3574 170.859L51.4164 170.468C50.0831 169.904 49.4164 169.079 49.4164 167.993C49.4113 167.644 49.4841 167.298 49.6294 166.98C49.7747 166.663 49.9889 166.381 50.2564 166.157C50.8348 165.655 51.5817 165.389 52.3474 165.414C52.8953 165.411 53.433 165.562 53.8991 165.85C54.3652 166.138 54.741 166.552 54.9834 167.043Z" fill="white"/>
<path d="M67.9214 165.596V175.346H66.4514V165.596H67.9214Z" fill="white"/>
<path d="M86.9115 166.118V167.857C86.1882 167.196 85.2511 166.817 84.2715 166.79C83.7968 166.782 83.3258 166.874 82.8894 167.061C82.453 167.248 82.0611 167.525 81.7395 167.874C81.4009 168.221 81.1348 168.632 80.9569 169.083C80.779 169.534 80.6929 170.015 80.7035 170.5C80.6925 170.979 80.7786 171.456 80.9567 171.9C81.1347 172.345 81.401 172.75 81.7395 173.089C82.0667 173.431 82.4613 173.701 82.8983 173.883C83.3353 174.064 83.8053 174.153 84.2785 174.144C84.7312 174.156 85.1812 174.07 85.5975 173.892C85.8173 173.798 86.0279 173.683 86.2265 173.55C86.4647 173.391 86.6934 173.218 86.9115 173.032V174.809C86.1057 175.277 85.1905 175.525 84.2585 175.526C83.5959 175.537 82.9381 175.413 82.3248 175.163C81.7114 174.912 81.1554 174.539 80.6905 174.067C80.2158 173.607 79.8403 173.055 79.5873 172.445C79.3343 171.834 79.2091 171.179 79.2195 170.518C79.2114 169.298 79.6495 168.117 80.4515 167.198C80.9255 166.621 81.5253 166.16 82.2048 165.85C82.8844 165.54 83.6258 165.39 84.3725 165.41C85.267 165.414 86.144 165.659 86.9115 166.118Z" fill="white"/>
<path d="M116.653 170.274H120.681V170.596C120.692 171.254 120.604 171.909 120.422 172.541C120.242 173.083 119.952 173.581 119.57 174.005C119.144 174.5 118.613 174.893 118.015 175.158C117.418 175.422 116.769 175.551 116.116 175.534C115.463 175.542 114.815 175.415 114.212 175.161C113.61 174.907 113.067 174.531 112.616 174.057C111.911 173.343 111.433 172.436 111.243 171.45C111.053 170.465 111.159 169.445 111.549 168.52C111.938 167.595 112.593 166.806 113.43 166.252C114.268 165.699 115.251 165.407 116.254 165.412C116.991 165.407 117.72 165.566 118.388 165.877C119.102 166.254 119.735 166.767 120.251 167.388L119.203 168.388C118.884 167.903 118.45 167.503 117.94 167.224C117.431 166.945 116.86 166.796 116.279 166.788C115.796 166.777 115.315 166.865 114.868 167.049C114.42 167.233 114.016 167.507 113.679 167.855C113.335 168.198 113.064 168.609 112.884 169.06C112.704 169.512 112.619 169.996 112.632 170.482C112.631 171.432 113 172.345 113.66 173.028C114.319 173.711 115.219 174.111 116.168 174.143C116.886 174.146 117.58 173.887 118.119 173.413C118.39 173.198 118.615 172.932 118.781 172.629C118.947 172.326 119.051 171.994 119.086 171.65H116.656L116.653 170.274Z" fill="white"/>
<path d="M135.275 171.191L138.293 175.346H136.493L133.708 171.355H133.443V175.346H131.972V165.596H133.692C134.679 165.51 135.665 165.767 136.483 166.323C136.793 166.584 137.039 166.911 137.203 167.281C137.367 167.651 137.445 168.054 137.43 168.458C137.446 169.102 137.236 169.732 136.837 170.238C136.446 170.731 135.893 171.069 135.275 171.191ZM133.444 170.075H133.911C135.305 170.075 136.002 169.542 136.002 168.475C136.002 167.475 135.325 166.975 133.969 166.975H133.445L133.444 170.075Z" fill="white"/>
<path d="M148.491 170.427C148.484 169.765 148.614 169.109 148.874 168.5C149.134 167.892 149.518 167.344 150 166.891C150.472 166.414 151.035 166.037 151.655 165.783C152.276 165.529 152.942 165.403 153.612 165.413C154.955 165.421 156.24 165.957 157.19 166.907C158.139 167.856 158.676 169.141 158.683 170.484C158.695 171.15 158.568 171.812 158.31 172.426C158.051 173.041 157.668 173.594 157.183 174.052C156.25 174.967 155.004 175.492 153.698 175.522C152.392 175.553 151.123 175.085 150.148 174.215C149.607 173.747 149.177 173.165 148.89 172.509C148.603 171.854 148.467 171.142 148.491 170.427ZM149.975 170.442C149.958 171.164 150.158 171.874 150.549 172.482C150.939 173.089 151.503 173.566 152.167 173.849C152.831 174.133 153.565 174.212 154.274 174.075C154.983 173.938 155.634 173.591 156.144 173.08C156.819 172.379 157.197 171.444 157.199 170.471C157.202 169.497 156.829 168.561 156.157 167.856C155.827 167.511 155.429 167.239 154.987 167.057C154.546 166.874 154.072 166.785 153.594 166.796C153.116 166.786 152.641 166.876 152.199 167.058C151.757 167.24 151.357 167.512 151.024 167.856C150.682 168.193 150.413 168.596 150.233 169.041C150.052 169.485 149.965 169.962 149.976 170.442H149.975Z" fill="white"/>
<path d="M171.445 165.596V171.466C171.397 172.105 171.54 172.744 171.855 173.302C172.061 173.563 172.324 173.774 172.623 173.919C172.922 174.064 173.25 174.14 173.583 174.14C173.916 174.14 174.244 174.064 174.543 173.919C174.842 173.774 175.105 173.563 175.31 173.302C175.63 172.746 175.773 172.105 175.721 171.466V165.596H177.193V171.868C177.209 172.334 177.133 172.798 176.968 173.234C176.803 173.67 176.553 174.069 176.232 174.407C175.887 174.759 175.475 175.039 175.02 175.231C174.565 175.422 174.076 175.52 173.582 175.52C173.089 175.52 172.6 175.422 172.145 175.231C171.69 175.039 171.278 174.759 170.932 174.407C170.612 174.069 170.362 173.67 170.197 173.234C170.032 172.798 169.956 172.334 169.973 171.868V165.591L171.445 165.596Z" fill="white"/>
<path d="M190.439 171.388V175.347H188.969V165.597H190.637C191.259 165.578 191.88 165.635 192.487 165.769C192.908 165.882 193.291 166.104 193.598 166.411C193.874 166.679 194.092 167.002 194.236 167.359C194.381 167.716 194.45 168.099 194.438 168.484C194.456 168.882 194.385 169.28 194.229 169.647C194.073 170.014 193.837 170.342 193.538 170.606C192.857 171.157 191.995 171.435 191.12 171.388H190.439ZM190.439 170.024H190.989C192.341 170.024 193.016 169.504 193.016 168.464C193.016 167.459 192.32 166.956 190.926 166.955H190.439V170.024Z" fill="white"/>
</svg>
