<svg width="28" height="46" viewBox="0 0 28 46" fill="none" xmlns="http://www.w3.org/2000/svg">
<path d="M13.9999 0.145996C10.4353 0.149966 7.01783 1.56776 4.49727 4.08833C1.9767 6.6089 0.558902 10.0264 0.554932 13.591L0.554932 32.41C0.554932 35.9758 1.97145 39.3956 4.49288 41.917C7.01431 44.4385 10.4341 45.855 13.9999 45.855C17.5658 45.855 20.9856 44.4385 23.507 41.917C26.0284 39.3956 27.4449 35.9758 27.4449 32.41V13.591C27.441 10.0264 26.0232 6.6089 23.5026 4.08833C20.982 1.56776 17.5645 0.149966 13.9999 0.145996ZM24.6999 32.41C24.6999 35.2478 23.5726 37.9694 21.566 39.976C19.5593 41.9827 16.8377 43.11 13.9999 43.11C11.1621 43.11 8.44053 41.9827 6.43389 39.976C4.42725 37.9694 3.29993 35.2478 3.29993 32.41V13.591C3.29993 10.7532 4.42725 8.03159 6.43389 6.02495C8.44053 4.01831 11.1621 2.891 13.9999 2.891C16.8377 2.891 19.5593 4.01831 21.566 6.02495C23.5726 8.03159 24.6999 10.7532 24.6999 13.591V32.41Z" fill="#999999"/>
<path d="M13.9999 9.23901C13.6363 9.23901 13.2876 9.38346 13.0305 9.64057C12.7733 9.89768 12.6289 10.2464 12.6289 10.61V16.921C12.6289 17.2846 12.7733 17.6333 13.0305 17.8905C13.2876 18.1476 13.6363 18.292 13.9999 18.292C14.3635 18.292 14.7122 18.1476 14.9693 17.8905C15.2265 17.6333 15.3709 17.2846 15.3709 16.921V10.61C15.3709 10.2464 15.2265 9.89768 14.9693 9.64057C14.7122 9.38346 14.3635 9.23901 13.9999 9.23901Z" fill="#999999"/>
</svg>
