<svg width="26" height="27" fill="none" xmlns="http://www.w3.org/2000/svg"><path d="M18.393.938H7.381a6.867 6.867 0 0 0-6.78 6.934V19.13a6.867 6.867 0 0 0 6.78 6.934h11.012a6.867 6.867 0 0 0 6.782-6.934V7.872A6.867 6.867 0 0 0 18.393.938Zm4.6 18.192a4.659 4.659 0 0 1-4.6 4.7H7.381a4.66 4.66 0 0 1-4.6-4.7V7.872a4.659 4.659 0 0 1 4.6-4.7h11.012a4.659 4.659 0 0 1 4.6 4.7V19.13Z" fill="#F08E02"/><path d="M12.887 7.664a5.844 5.844 0 1 0 5.562 5.837 5.711 5.711 0 0 0-5.562-5.837Zm0 9.664a3.832 3.832 0 1 1 3.647-3.827 3.746 3.746 0 0 1-3.647 3.827ZM19.358 5.07a1.8 1.8 0 1 0-.003 3.6 1.8 1.8 0 0 0 .003-3.6Z" fill="#F08E02"/></svg>