<svg width="26" height="27" viewBox="0 0 26 27" fill="none" xmlns="http://www.w3.org/2000/svg">
<path d="M18.3933 0.937988H7.38131C5.56335 0.96067 3.82858 1.70337 2.55741 3.00322C1.28624 4.30307 0.582428 6.05398 0.600308 7.87199V19.13C0.582428 20.948 1.28624 22.6989 2.55741 23.9988C3.82858 25.2986 5.56335 26.0413 7.38131 26.064H18.3933C20.2114 26.0416 21.9465 25.299 23.2179 23.9991C24.4892 22.6992 25.1932 20.9482 25.1753 19.13V7.87199C25.1932 6.05381 24.4892 4.30275 23.2179 3.00287C21.9465 1.70299 20.2114 0.960407 18.3933 0.937988ZM22.9933 19.13C23.0043 20.3626 22.5263 21.5492 21.6641 22.4302C20.802 23.3111 19.6258 23.8144 18.3933 23.83H7.38131C6.14879 23.8144 4.97266 23.3111 4.11048 22.4302C3.24831 21.5492 2.77036 20.3626 2.78131 19.13V7.87199C2.77036 6.63942 3.24831 5.45273 4.11048 4.57182C4.97266 3.6909 6.14879 3.18755 7.38131 3.17199H18.3933C19.6258 3.18755 20.802 3.6909 21.6641 4.57182C22.5263 5.45273 23.0043 6.63942 22.9933 7.87199V19.13Z" fill="#F08E02"/>
<path d="M12.8874 7.66404C11.7209 7.60768 10.5642 7.90212 9.56666 8.50937C8.5691 9.11661 7.77635 10.0088 7.29067 11.0709C6.805 12.133 6.64868 13.3162 6.84188 14.468C7.03507 15.6198 7.56892 16.6872 8.37456 17.5327C9.18021 18.3782 10.2207 18.9629 11.3618 19.2114C12.5029 19.4599 13.6923 19.3608 14.7766 18.9269C15.8608 18.493 16.7902 17.7442 17.4449 16.7771C18.0995 15.81 18.4494 14.6689 18.4494 13.501C18.4832 11.9902 17.9168 10.5275 16.8743 9.43341C15.8318 8.33934 14.3981 7.70309 12.8874 7.66404ZM12.8874 17.328C12.1224 17.365 11.364 17.1719 10.7099 16.7738C10.0557 16.3756 9.53589 15.7905 9.21742 15.0941C8.89895 14.3976 8.79647 13.6217 8.92317 12.8665C9.04987 12.1112 9.39996 11.4113 9.92827 10.8569C10.4566 10.3025 11.1389 9.91913 11.8872 9.75622C12.6354 9.5933 13.4154 9.65833 14.1263 9.9429C14.8373 10.2275 15.4467 10.7185 15.8759 11.3527C16.3051 11.987 16.5345 12.7352 16.5344 13.501C16.5564 14.4916 16.1849 15.4506 15.5014 16.1679C14.8178 16.8852 13.8779 17.3024 12.8874 17.328Z" fill="#F08E02"/>
<path d="M19.3583 5.0708C18.9419 5.07044 18.5383 5.21445 18.2162 5.4783C17.894 5.74216 17.6734 6.10954 17.5917 6.51785C17.5101 6.92617 17.5725 7.35016 17.7684 7.7176C17.9643 8.08505 18.2815 8.37321 18.666 8.533C19.0506 8.69278 19.4786 8.71432 19.8772 8.59392C20.2758 8.47353 20.6204 8.21866 20.8521 7.87274C21.0839 7.52681 21.1886 7.11122 21.1483 6.69677C21.1081 6.28233 20.9254 5.89466 20.6313 5.5998C20.2932 5.26273 19.8358 5.07264 19.3583 5.0708Z" fill="#F08E02"/>
</svg>
