<svg width="30" height="22" viewBox="0 0 30 22" fill="none" xmlns="http://www.w3.org/2000/svg">
<path d="M29.2381 3.55101C29.0692 2.92308 28.7382 2.35054 28.2784 1.89073C27.8186 1.43092 27.2461 1.09997 26.6181 0.931007C24.3071 0.312007 15.0391 0.312012 15.0391 0.312012C15.0391 0.312012 5.77114 0.312007 3.46014 0.931007C2.8322 1.09997 2.25967 1.43092 1.79986 1.89073C1.34005 2.35054 1.0091 2.92308 0.840134 3.55101C0.0145516 8.27118 0.0145516 13.0988 0.840134 17.819C1.0091 18.4469 1.34005 19.0195 1.79986 19.4793C2.25967 19.9391 2.8322 20.27 3.46014 20.439C5.77114 21.058 15.0391 21.058 15.0391 21.058C15.0391 21.058 24.3071 21.058 26.6181 20.439C27.2461 20.27 27.8186 19.9391 28.2784 19.4793C28.7382 19.0195 29.0692 18.4469 29.2381 17.819C30.0637 13.0988 30.0637 8.27118 29.2381 3.55101Z" fill="#F08E02"/>
<path d="M12.0762 15.1298V6.23877L19.7762 10.6848L12.0762 15.1298Z" fill="black"/>
</svg>
